<?xml version="1.0" encoding="UTF-8" standalone="no"?>
<!DOCTYPE svg PUBLIC "-//W3C//DTD SVG 1.1//EN" "http://www.w3.org/Graphics/SVG/1.1/DTD/svg11.dtd">
<svg width="100%" height="100%" viewBox="0 0 2000 2000" version="1.1" xmlns="http://www.w3.org/2000/svg" xmlns:xlink="http://www.w3.org/1999/xlink" xml:space="preserve" xmlns:serif="http://www.serif.com/" style="fill-rule:evenodd;clip-rule:evenodd;stroke-linejoin:round;stroke-miterlimit:1.41421;">
    <g id="ADA" transform="matrix(0.707107,0,0,0.707107,116.064,183.355)">
        <path d="M1219.33,6.825C1273.81,-21.587 1340.33,44.325 1311.38,98.762C1294.56,143.138 1230.81,154.938 1198.25,121.112C1163.75,88.65 1175,24.488 1219.33,6.825M633.263,70C666.363,56.375 708.263,86.7 704.887,122.775C708.4,161.938 660.512,190.763 626.775,172.15C582.075,154.838 587.187,82.275 633.262,70M1833.59,173.25C1781.86,167 1773.67,85.675 1823.48,69.3C1862.1,50.463 1897.54,85.787 1903.19,122.4C1895.09,153.663 1868.91,182.287 1833.59,173.25M766.612,319.438C821.95,284.438 900.913,336.563 892.4,400.838C889.525,465.738 803.325,503.338 754.688,459.462C707.663,425 714.788,345.938 766.612,319.438M1611.38,356.575C1636.06,292.95 1736.1,291.025 1764.2,352.962C1791.98,401.163 1757.81,460.85 1708.33,477.238C1642.78,489.475 1580.51,418.613 1611.38,356.575M1148.75,473.625C1148.21,418.938 1198.03,378.187 1250,374.462C1284.48,381.375 1322.05,396.063 1336.84,430.85C1364.4,478.837 1339.92,544.913 1290.13,566.938C1267.35,579.7 1240.42,574.913 1215.63,573.425C1177.71,554.813 1145.79,518.313 1148.75,473.625M277.188,553.313C327.738,522.237 395.938,578.95 376.8,633.862C366.263,681.362 302.413,700.688 265.913,670.362C226.95,641.95 233.125,573.637 277.188,553.313M2148.75,553.213C2191.64,519.913 2262.41,558.113 2257.3,612.263C2260.18,661.637 2198.99,698.875 2156.41,673.45C2109.53,652.375 2104.74,580.238 2148.75,553.213M1393.85,651.525C1464.63,626.1 1548.69,656.525 1589.03,719.625C1642.24,796.763 1613.92,914.238 1531.35,958.5C1445.79,1010.85 1320.85,966.475 1289.25,870.925C1253.38,785.387 1305.64,678.338 1393.85,651.525M978.6,659.938C1057.04,622.913 1162.6,653.975 1200.49,734.213C1245.08,812.313 1210.6,921.063 1130.89,961.388C1051.08,1006.71 938.475,972.35 899.85,888.5C856.538,807.412 895,697.275 978.6,659.937M562.813,802.088C568.775,751.55 616.45,718.662 664.55,715.262C716.375,721.512 757.775,761.762 763.413,814.212C760.013,866.137 719.887,916.887 664.862,916.575C604.325,921.787 551.25,861.562 562.813,802.087M1790.91,726.25C1853.06,690.075 1939.36,742.738 1936.6,814.137C1940.86,889.787 1845.35,943.1 1783.46,898.725C1719.17,861.775 1724.19,757.712 1790.91,726.25M809.613,992.875C882.3,972.875 965.413,1007.14 1001.06,1073.95C1040.11,1141.2 1024.15,1234.63 963.5,1283.95C885.713,1356.3 742.25,1327.25 700.85,1228.51C653.275,1138 711.063,1016.7 809.613,992.875M1597.23,992.5C1667.89,972.288 1750.9,999.525 1788.89,1063.9C1839.11,1137.53 1815.14,1247.34 1740.36,1294.8C1662.04,1349.91 1540.71,1320.98 1497.61,1234.8C1445.36,1145.66 1497.94,1019.69 1597.23,992.5M342.1,1076.5C404.888,1052.75 474.488,1122.04 449.05,1184.29C433.513,1241 353.587,1261.96 312.3,1220.15C263.988,1180.89 281.875,1093.53 342.1,1076.5M2043.98,1166.84C2042.16,1114.81 2080.22,1068.74 2133.57,1065.86C2176.57,1072.67 2218.39,1107.36 2214.99,1154.17C2218.93,1216 2144.43,1258.03 2091.75,1228.98C2067.06,1216.42 2054.4,1191.1 2043.98,1166.84M33.375,1107.04C71.15,1090.55 117.875,1123.29 109.25,1165.24C107.225,1212.74 37.1,1231 11.338,1191.31C-11.425,1163.75 2.2,1121.25 33.375,1107.04ZM2415.16,1106.09C2441.76,1087.15 2484.44,1100.76 2494.97,1131.84C2512.85,1165.78 2480.08,1212.28 2441.88,1206.54C2388.25,1211.42 2370.9,1129.7 2415.16,1106.09M1014.79,1334.1C1114.19,1308.25 1221.04,1391.14 1221.66,1493.49C1228.15,1596.91 1122.91,1688.63 1021.16,1664.74C942.513,1652.08 880.8,1576.31 883.35,1496.84C883.138,1420.83 940.5,1350.17 1014.79,1334.1M1408.44,1333.89C1509.33,1305.69 1619.36,1390.06 1617.76,1494.78C1623.09,1596.29 1521.14,1684.91 1421.51,1664.78C1327.76,1652.65 1258.59,1549.65 1284.76,1458.67C1297.98,1398.05 1348.63,1348.75 1408.44,1333.89M649.45,1396.89C719.262,1384.98 784.713,1462.86 756.4,1529.15C735.75,1599.79 632.95,1618.95 587.5,1561.25C534.187,1505.84 573.987,1404.54 649.45,1396.89M1803.89,1400C1866.14,1373.92 1942.55,1427.78 1937.76,1495.34C1940.26,1569.71 1845.92,1621 1785.05,1577.59C1716.1,1538.61 1728.65,1423.91 1803.89,1400M2126.56,1723.65C2102.19,1678.21 2146.46,1617.99 2196.91,1626.4C2222.03,1625.98 2239.59,1645.76 2255.66,1662.36C2258.96,1689.29 2264.5,1721.41 2242.15,1742.16C2211.8,1780.58 2143.05,1769.61 2126.56,1723.65M276.975,1639.05C324.125,1607.66 391.975,1654.48 381.375,1709.6C375.738,1758.35 314.325,1786.21 273.875,1758.55C230.463,1733.44 232.063,1661.94 276.975,1639.05M1208.48,1741.1C1270.2,1713.86 1348.84,1767.6 1342.99,1835.59C1347.56,1910.71 1250.3,1962.74 1189.95,1917.63C1122.91,1878.89 1134.09,1764.92 1208.48,1741.1M777.038,1841.75C829.613,1814.09 900.163,1861.86 895.375,1920.7C896.975,1969.01 849.825,2010.19 802.15,2003.05C762.662,2002.2 736.912,1966.8 724.25,1933.14C724.9,1896.45 740,1855.59 777.037,1841.75M1650.96,1842.6C1705.03,1809.19 1781.86,1857.17 1776.75,1920.1C1778.14,1985.86 1691.3,2027.99 1640.96,1984.79C1592.23,1950.92 1598.17,1869.53 1650.96,1842.6M1802.94,2218.31C1778.89,2181.93 1807.2,2138.09 1846.25,2129.79C1877.65,2136.18 1910.85,2159.79 1904.25,2196.19C1899.67,2245.45 1827.63,2260.56 1802.94,2218.31M596.55,2186.71C606.125,2157.88 629.325,2129.21 663.275,2136.71C712.763,2140.22 727.45,2214.81 684.138,2237.8C645.188,2264.06 600,2228.1 596.55,2186.71M1178.56,2219.8C1188.04,2177.14 1243.26,2156.39 1279.66,2179.05C1303.71,2189.38 1310.74,2216.29 1316.91,2239.16C1313.61,2251.08 1310.66,2263 1307.76,2274.91C1292.86,2292.58 1273.71,2310.24 1248.91,2309.6C1202.83,2315 1161.25,2262.9 1178.56,2219.8" style="fill:#ccc;fill-rule:nonzero;"/>
    </g>
</svg>
