<?xml version="1.0" encoding="UTF-8" standalone="no"?>
<!DOCTYPE svg PUBLIC "-//W3C//DTD SVG 1.1//EN" "http://www.w3.org/Graphics/SVG/1.1/DTD/svg11.dtd">
<svg width="100%" height="100%" viewBox="0 0 2000 2000" version="1.1" xmlns="http://www.w3.org/2000/svg" xmlns:xlink="http://www.w3.org/1999/xlink" xml:space="preserve" xmlns:serif="http://www.serif.com/" style="fill-rule:evenodd;clip-rule:evenodd;stroke-linejoin:round;stroke-miterlimit:1.41421;">
    <g id="ETH">
        <g transform="matrix(27.7513,0,0,27.7513,112.065,111.938)">
            <path d="M63.033,39.744C58.759,56.887 41.396,67.32 24.251,63.045C7.113,58.771 -3.32,41.407 0.956,24.265C5.228,7.12 22.591,-3.314 39.731,0.96C56.875,5.234 67.307,22.6 63.033,39.744Z" style="fill:#ccc;fill-rule:nonzero;"/>
        </g>
        <g transform="matrix(1.35915,0,0,1.60335,-699.451,-218.244)">
            <path d="M1250,883.907L1451.84,764.617L1250,429.707L1048.16,764.617L1250,883.907Z" style="fill:white;fill-rule:nonzero;"/>
        </g>
        <g transform="matrix(1.35915,0,0,1.60335,-699.451,-218.244)">
            <path d="M1250,1087.28L1451.95,802.886L1250,922.067L1048.16,802.886L1250,1087.28Z" style="fill:white;fill-rule:nonzero;"/>
        </g>
    </g>
</svg>
