<?xml version="1.0" encoding="UTF-8" standalone="no"?>
<!DOCTYPE svg PUBLIC "-//W3C//DTD SVG 1.1//EN" "http://www.w3.org/Graphics/SVG/1.1/DTD/svg11.dtd">
<svg width="100%" height="100%" viewBox="0 0 2000 2000" version="1.1" xmlns="http://www.w3.org/2000/svg" xmlns:xlink="http://www.w3.org/1999/xlink" xml:space="preserve" xmlns:serif="http://www.serif.com/" style="fill-rule:evenodd;clip-rule:evenodd;stroke-linejoin:round;stroke-miterlimit:1.41421;">
    <g id="LTC" transform="matrix(0.711199,0,0,0.711199,112.004,112)">
        <path d="M2500,1249.99C2500,1940.35 1940.37,2500 1250.02,2500C559.656,2500 0.015,1940.35 0.015,1249.99C0.015,559.641 559.656,0 1250.02,0C1940.36,0 2500,559.641 2500,1249.99" style="fill:#ccc;fill-rule:nonzero;"/>
        <path d="M2234.61,1250.01C2234.61,1793.76 1793.79,2234.61 1250.02,2234.61C706.244,2234.61 265.394,1793.76 265.394,1250.01C265.394,706.213 706.244,265.386 1250.02,265.386C1793.8,265.386 2234.61,706.206 2234.61,1250.01" style="fill:#ccc;fill-rule:nonzero;"/>
        <path d="M1176.96,1583.92L1258.15,1278.2L1450.37,1207.97L1498.18,1028.3L1496.55,1023.85L1307.33,1092.97L1443.66,579.633L1057.03,579.633L878.739,1249.55L729.88,1303.93L680.694,1489.16L829.438,1434.83L724.36,1829.64L1753.36,1829.64L1819.32,1583.92L1176.96,1583.92" style="fill:white;fill-rule:nonzero;"/>
    </g>
</svg>
