<?xml version="1.0" encoding="UTF-8" standalone="no"?>
<!DOCTYPE svg PUBLIC "-//W3C//DTD SVG 1.1//EN" "http://www.w3.org/Graphics/SVG/1.1/DTD/svg11.dtd">
<svg width="100%" height="100%" viewBox="0 0 2000 2000" version="1.1" xmlns="http://www.w3.org/2000/svg" xmlns:xlink="http://www.w3.org/1999/xlink" xml:space="preserve" xmlns:serif="http://www.serif.com/" style="fill-rule:evenodd;clip-rule:evenodd;stroke-linejoin:round;stroke-miterlimit:1.41421;">
    <g id="XLM" transform="matrix(0.969517,0,0,0.969517,73.9246,112.44)">
        <g transform="matrix(1,0,0,1,-112.64,-3.69)">
            <path d="M809.33,1479.66C898.21,1542.73 1061.18,1464.09 1176.71,1304.11C1178.34,1301.99 1180.09,1300.01 1181.62,1297.79C1245.17,1206.98 1223.27,1081.43 1132.81,1017.23C1042.35,953.03 917.52,974.62 854.06,1065.41C852.5,1067.64 851.22,1069.96 849.77,1072.23C739.08,1235.67 720.46,1416.65 809.33,1479.66" style="fill:#ccc;fill-rule:nonzero;"/>
            <path d="M900.25,1358.69C962.11,1401.52 1076.31,1347.01 1157.67,1236.93C1158.86,1235.47 1160.08,1234.11 1161.19,1232.58C1178,1209.34 1187.05,1181.38 1187.05,1152.69C1187.05,1107.94 1165.02,1065.95 1128.19,1040.52C1065.19,996.86 977.84,1012.15 933.11,1074.62C931.97,1076.16 931.11,1077.75 930.11,1079.29C852.08,1191.72 838.35,1315.83 900.25,1358.69" style="fill:white;fill-rule:nonzero;"/>
            <g>
                <path d="M516.15,838.91C506.82,850.91 502.22,868.99 527.57,861.1C599.88,838.61 763.81,812.36 954.09,944.35C1211.09,1122.59 1190.22,660.61 1190.22,660.61C1129.19,618.32 822.11,446.66 516.15,838.91" style="fill:#ccc;fill-rule:nonzero;"/>
                <path d="M1493.12,1535.38C1494.21,1561.49 1509.62,1551.23 1517.7,1538.61C1782.24,1125.19 1518.86,897.43 1458.82,854.93C1458.82,854.93 1019.72,988.57 1272.48,1167.69C1459.63,1300.3 1489.96,1460.93 1493.12,1535.38" style="fill:#ccc;fill-rule:nonzero;"/>
            </g>
            <path d="M1226.16,1237.76C1276.34,1274.86 1306.69,1280.91 1343.16,1235.86C1379.63,1190.81 1571.43,965.86 1763.05,717.86C1954.67,469.86 1837.78,43.1 1814.78,26.1L1814.48,26.46L1814.68,26.01C1791.68,9.01 1369.05,37.3 1210.9,310.01C1052.75,582.72 915.34,847.84 887.19,899C859.04,950.16 874.68,978.18 924.85,1015.25C947.71,1032.1 1012.08,1079.66 1075.5,1126.5C1138.92,1173.34 1203.3,1220.91 1226.16,1237.76" style="fill:white;fill-rule:nonzero;"/>
            <path d="M1282.71,1292.56L1280.63,1292.56C1257.73,1291.94 1233.85,1281.7 1200.79,1258.3C1177.54,1241.86 1112.79,1196.04 1048.22,1150.3L1044.42,1147.61L942.84,1075.75L888,1036.95C855,1013.57 837.35,994.46 829.09,973.03C816.16,939.51 830.09,908.77 841.66,888.56C847.73,877.98 858.84,857.97 874.21,830.28C930.7,728.49 1048.21,516.67 1178.1,302.13C1224.84,224.92 1296.31,160.13 1390.53,109.46C1440.33,82.7 1523.53,45.86 1636.83,22.31C1681.62,13 1727.53,6.69 1766.1,4.52C1825.22,1.2 1835.71,8.64 1840.76,12.22L1841.23,12.56C1846.41,16.25 1856.8,24.68 1873.23,80.5C1884.23,117.91 1893.78,163.67 1900.12,209.35C1917.52,334.65 1926.63,569.73 1792.19,736.35C1634.83,931.47 1475.88,1114 1399.49,1201.67C1378.69,1225.56 1363.66,1242.81 1355.79,1252.12C1344.33,1265.67 1333.08,1275.47 1321.39,1282.12C1309.63,1288.92 1296.29,1292.53 1282.71,1292.56M1794.16,53.56C1752.77,53.56 1662.3,62.09 1560.27,93.33C1449.67,127.16 1300.98,195.36 1220.78,327.94C1091.35,541.67 974.12,752.94 917.78,854.46C902.31,882.34 891.13,902.46 884.88,913.37C871.42,936.83 872.88,947.99 875.58,955.09C879.93,966.36 893.02,979.44 916.78,996.26L971.63,1035.06L1073.21,1106.92L1077.02,1109.62C1141.59,1155.32 1206.33,1201.13 1229.58,1217.62C1278.58,1252.29 1293.11,1249.06 1317.73,1219.97C1325.83,1210.39 1340.96,1192.97 1361.9,1168.97C1438.09,1081.5 1596.62,899.48 1753.35,705.14C1850.65,584.52 1864.49,420.83 1858.98,304.75C1852.98,179.01 1823.05,78.99 1811.09,54.27C1805.46,53.73 1799.81,53.479 1794.16,53.52" style="fill:#ccc;fill-rule:nonzero;"/>
            <path d="M1380.89,626.15C1460.96,682.59 1571.6,663.4 1627.89,583.32C1684.18,503.24 1665.08,392.6 1585.01,336.16C1504.94,279.72 1394.34,298.87 1338.01,378.98C1281.68,459.09 1300.85,569.7 1380.89,626.15" style="fill:white;fill-rule:nonzero;"/>
            <path d="M1482.6,683.59C1371.75,683.265 1280.71,591.964 1280.71,481.111C1280.71,439.404 1293.6,398.699 1317.6,364.59C1355.43,310.816 1417.2,278.743 1482.95,278.743C1524.67,278.743 1565.39,291.66 1599.48,315.71C1690.71,380.02 1712.65,506.53 1648.39,597.71C1617.63,641.679 1570.5,671.534 1517.6,680.55C1506.04,682.564 1494.33,683.581 1482.6,683.59M1483.23,328.73C1474.4,328.73 1465.58,329.489 1456.88,331C1417.09,337.8 1381.63,360.273 1358.5,393.36C1310.17,462.04 1326.68,557.3 1395.31,605.7C1420.97,623.796 1451.62,633.515 1483.02,633.515C1532.5,633.515 1579,609.384 1607.48,568.92C1655.87,500.25 1639.34,405.01 1570.65,356.59C1545.1,338.475 1514.55,328.738 1483.23,328.73" style="fill:#ccc;fill-rule:nonzero;"/>
        </g>
        <g>
            <g transform="matrix(0.57928,-0.81513,0.81513,0.57928,-1468.12,967.68)">
                <rect x="223.61" y="1786.32" width="484.89" height="25.01" style="fill:#ccc;fill-rule:nonzero;"/>
            </g>
            <g transform="matrix(0.58,-0.82,0.82,0.58,-1454.41,1057.3)">
                <rect x="418.07" y="1817.82" width="283.3" height="25.01" style="fill:#ccc;fill-rule:nonzero;"/>
            </g>
        </g>
    </g>
</svg>
